# Blender 3.6.2
# www.blender.org
mtllib cierra.mtl
o Cylinder
v -0.022961 0.000000 -3.995314
v -0.022961 0.252830 -3.995314
v 0.756486 0.000000 -3.918545
v 0.756486 0.252830 -3.918545
v 1.505979 0.000000 -3.691189
v 1.505979 0.252830 -3.691189
v 2.196716 0.000000 -3.321982
v 2.196716 0.252830 -3.321982
v 2.802152 0.000000 -2.825114
v 2.802152 0.252830 -2.825114
v 3.299020 0.000000 -2.219677
v 3.299020 0.252830 -2.219677
v 3.668227 0.000000 -1.528941
v 3.668227 0.252830 -1.528941
v 3.895583 0.000000 -0.779447
v 3.895583 0.252830 -0.779447
v 3.972352 0.000000 0.000000
v 3.972352 0.252830 0.000000
v 3.895583 0.000000 0.779447
v 3.895583 0.252830 0.779447
v 3.668227 0.000000 1.528941
v 3.668227 0.252830 1.528941
v 3.299020 0.000000 2.219677
v 3.299020 0.252830 2.219677
v 2.802152 0.000000 2.825114
v 2.802152 0.252830 2.825114
v 2.196716 0.000000 3.321982
v 2.196716 0.252830 3.321982
v 1.505979 0.000000 3.691189
v 1.505979 0.252830 3.691189
v 0.756486 0.000000 3.918545
v 0.756486 0.252830 3.918545
v -0.022961 0.000000 3.995314
v -0.022961 0.252830 3.995314
v -0.802409 0.000000 3.918545
v -0.802409 0.252830 3.918545
v -1.551902 0.000000 3.691189
v -1.551902 0.252830 3.691189
v -2.242639 0.000000 3.321982
v -2.242639 0.252830 3.321982
v -2.848075 0.000000 2.825114
v -2.848075 0.252830 2.825114
v -3.344944 0.000000 2.219677
v -3.344944 0.252830 2.219677
v -3.714150 0.000000 1.528941
v -3.714150 0.252830 1.528941
v -3.941506 0.000000 0.779447
v -3.941506 0.252830 0.779447
v -4.018275 0.000000 0.000000
v -4.018275 0.252830 0.000000
v -3.941506 0.000000 -0.779447
v -3.941506 0.252830 -0.779447
v -3.714150 0.000000 -1.528941
v -3.714150 0.252830 -1.528941
v -3.344944 0.000000 -2.219677
v -3.344944 0.252830 -2.219677
v -2.848075 0.000000 -2.825114
v -2.848075 0.252830 -2.825114
v -2.242639 0.000000 -3.321982
v -2.242639 0.252830 -3.321982
v -1.551902 0.000000 -3.691189
v -1.551902 0.252830 -3.691189
v -0.802409 0.000000 -3.918545
v -0.802409 0.252830 -3.918545
vn -0.0000 -0.0000 -1.0000
vn 0.1951 -0.0000 -0.9808
vn 0.3827 -0.0000 -0.9239
vn 0.5556 -0.0000 -0.8315
vn 0.7071 -0.0000 -0.7071
vn 0.8315 -0.0000 -0.5556
vn 0.9239 -0.0000 -0.3827
vn 0.9808 -0.0000 -0.1951
vn 1.0000 -0.0000 -0.0000
vn 0.9808 -0.0000 0.1951
vn 0.9239 -0.0000 0.3827
vn 0.8315 -0.0000 0.5556
vn 0.7071 -0.0000 0.7071
vn 0.5556 -0.0000 0.8315
vn 0.3827 -0.0000 0.9239
vn 0.1951 -0.0000 0.9808
vn -0.0000 -0.0000 1.0000
vn -0.1951 -0.0000 0.9808
vn -0.3827 -0.0000 0.9239
vn -0.5556 -0.0000 0.8315
vn -0.7071 -0.0000 0.7071
vn -0.8315 -0.0000 0.5556
vn -0.9239 -0.0000 0.3827
vn -0.9808 -0.0000 0.1951
vn -1.0000 -0.0000 -0.0000
vn -0.9808 -0.0000 -0.1951
vn -0.9239 -0.0000 -0.3827
vn -0.8315 -0.0000 -0.5556
vn -0.7071 -0.0000 -0.7071
vn -0.5556 -0.0000 -0.8315
vn -0.3827 -0.0000 -0.9239
vn -0.0000 1.0000 -0.0000
vn -0.1951 -0.0000 -0.9808
vn -0.0000 -1.0000 -0.0000
vt 0.180430 0.005159
vt 0.254309 0.095292
vt 0.175106 0.010109
vt 0.248985 0.100242
vt 0.169782 0.015059
vt 0.243661 0.105192
vt 0.164458 0.020009
vt 0.238337 0.110142
vt 0.159134 0.024960
vt 0.233013 0.115092
vt 0.153810 0.029910
vt 0.227689 0.120043
vt 0.148486 0.034860
vt 0.222365 0.124993
vt 0.143162 0.039810
vt 0.217041 0.129943
vt 0.137839 0.044760
vt 0.211717 0.134893
vt 0.132515 0.049711
vt 0.206394 0.139843
vt 0.127191 0.054661
vt 0.201070 0.144793
vt 0.121867 0.059611
vt 0.195746 0.149744
vt 0.116543 0.064561
vt 0.190422 0.154694
vt 0.111219 0.069511
vt 0.185098 0.159644
vt 0.105895 0.074461
vt 0.179774 0.164594
vt 0.100571 0.079412
vt 0.174450 0.169544
vt 0.095247 0.084362
vt 0.169126 0.174495
vt 0.089923 0.089312
vt 0.163802 0.179445
vt 0.084599 0.094262
vt 0.158478 0.184395
vt 0.079276 0.099212
vt 0.153154 0.189345
vt 0.073952 0.104163
vt 0.147831 0.194295
vt 0.068628 0.109113
vt 0.142507 0.199245
vt 0.063304 0.114063
vt 0.137183 0.204196
vt 0.057980 0.119013
vt 0.131859 0.209146
vt 0.052656 0.123963
vt 0.126535 0.214096
vt 0.047332 0.128913
vt 0.121211 0.219046
vt 0.042008 0.133864
vt 0.115887 0.223996
vt 0.036684 0.138814
vt 0.110563 0.228946
vt 0.031360 0.143764
vt 0.105239 0.233897
vt 0.026036 0.148714
vt 0.099915 0.238847
vt 0.020713 0.153664
vt 0.090819 0.376871
vt 0.622642 0.092606
vt 0.906907 0.624429
vt 0.094592 0.243797
vt 0.015389 0.158614
vt 0.089268 0.248747
vt 0.010065 0.163565
vt 0.928434 0.457687
vt 0.456554 0.070425
vt 0.069292 0.542306
vt 0.259633 0.090342
vt 0.874918 0.701656
vt 0.828478 0.771158
vt 0.769371 0.830265
vt 0.699869 0.876705
vt 0.622642 0.908694
vt 0.375084 0.908694
vt 0.540658 0.925001
vt 0.457068 0.925001
vt 0.297857 0.876705
vt 0.228355 0.830265
vt 0.169248 0.771158
vt 0.122808 0.701656
vt 0.090819 0.624429
vt 0.074512 0.542445
vt 0.074512 0.458855
vt 0.122808 0.299644
vt 0.169248 0.230141
vt 0.228355 0.171034
vt 0.297857 0.124594
vt 0.375084 0.092606
vt 0.457068 0.076298
vt 0.540658 0.076298
vt 0.699869 0.124595
vt 0.769371 0.171035
vt 0.828478 0.230142
vt 0.874918 0.299644
vt 0.906907 0.376871
vt 0.923215 0.458855
vt 0.923215 0.542445
vt 0.541172 0.929568
vt 0.624164 0.913060
vt 0.702341 0.880678
vt 0.772699 0.833666
vt 0.832533 0.773832
vt 0.879544 0.703475
vt 0.911926 0.625298
vt 0.928434 0.542306
vt 0.911926 0.374695
vt 0.879544 0.296518
vt 0.832533 0.226161
vt 0.772699 0.166327
vt 0.702341 0.119316
vt 0.624164 0.086934
vt 0.541172 0.070425
vt 0.373562 0.086934
vt 0.295385 0.119316
vt 0.225027 0.166327
vt 0.165193 0.226161
vt 0.118182 0.296518
vt 0.085800 0.374695
vt 0.069292 0.457688
vt 0.085800 0.625298
vt 0.118182 0.703475
vt 0.165193 0.773832
vt 0.225027 0.833666
vt 0.295385 0.880678
vt 0.373562 0.913060
vt 0.456554 0.929568
s 1
usemtl Material.001
f 1/1/1 4/2/2 3/3/2
f 3/3/2 6/4/3 5/5/3
f 5/5/3 8/6/4 7/7/4
f 7/7/4 10/8/5 9/9/5
f 9/9/5 12/10/6 11/11/6
f 11/11/6 14/12/7 13/13/7
f 13/13/7 16/14/8 15/15/8
f 15/15/8 18/16/9 17/17/9
f 17/17/9 20/18/10 19/19/10
f 19/19/10 22/20/11 21/21/11
f 21/21/11 24/22/12 23/23/12
f 23/23/12 26/24/13 25/25/13
f 25/25/13 28/26/14 27/27/14
f 27/27/14 30/28/15 29/29/15
f 29/29/15 32/30/16 31/31/16
f 31/31/16 34/32/17 33/33/17
f 33/33/17 36/34/18 35/35/18
f 35/35/18 38/36/19 37/37/19
f 37/37/19 40/38/20 39/39/20
f 39/39/20 42/40/21 41/41/21
f 41/41/21 44/42/22 43/43/22
f 43/43/22 46/44/23 45/45/23
f 45/45/23 48/46/24 47/47/24
f 47/47/24 50/48/25 49/49/25
f 49/49/25 52/50/26 51/51/26
f 51/51/26 54/52/27 53/53/27
f 53/53/27 56/54/28 55/55/28
f 55/55/28 58/56/29 57/57/29
f 57/57/29 60/58/30 59/59/30
f 59/59/30 62/60/31 61/61/31
f 38/62/32 22/63/32 6/64/32
f 61/61/31 64/65/33 63/66/33
f 63/66/33 2/67/1 1/68/1
f 15/69/34 31/70/34 47/71/34
f 1/1/1 2/72/1 4/2/2
f 3/3/2 4/2/2 6/4/3
f 5/5/3 6/4/3 8/6/4
f 7/7/4 8/6/4 10/8/5
f 9/9/5 10/8/5 12/10/6
f 11/11/6 12/10/6 14/12/7
f 13/13/7 14/12/7 16/14/8
f 15/15/8 16/14/8 18/16/9
f 17/17/9 18/16/9 20/18/10
f 19/19/10 20/18/10 22/20/11
f 21/21/11 22/20/11 24/22/12
f 23/23/12 24/22/12 26/24/13
f 25/25/13 26/24/13 28/26/14
f 27/27/14 28/26/14 30/28/15
f 29/29/15 30/28/15 32/30/16
f 31/31/16 32/30/16 34/32/17
f 33/33/17 34/32/17 36/34/18
f 35/35/18 36/34/18 38/36/19
f 37/37/19 38/36/19 40/38/20
f 39/39/20 40/38/20 42/40/21
f 41/41/21 42/40/21 44/42/22
f 43/43/22 44/42/22 46/44/23
f 45/45/23 46/44/23 48/46/24
f 47/47/24 48/46/24 50/48/25
f 49/49/25 50/48/25 52/50/26
f 51/51/26 52/50/26 54/52/27
f 53/53/27 54/52/27 56/54/28
f 55/55/28 56/54/28 58/56/29
f 57/57/29 58/56/29 60/58/30
f 59/59/30 60/58/30 62/60/31
f 6/64/32 4/73/32 2/74/32
f 2/74/32 64/75/32 62/76/32
f 62/76/32 60/77/32 54/78/32
f 60/77/32 58/79/32 54/78/32
f 58/79/32 56/80/32 54/78/32
f 54/78/32 52/81/32 50/82/32
f 50/82/32 48/83/32 54/78/32
f 48/83/32 46/84/32 54/78/32
f 46/84/32 44/85/32 42/86/32
f 42/86/32 40/87/32 38/62/32
f 38/62/32 36/88/32 34/89/32
f 34/89/32 32/90/32 30/91/32
f 30/91/32 28/92/32 22/63/32
f 28/92/32 26/93/32 22/63/32
f 26/93/32 24/94/32 22/63/32
f 22/63/32 20/95/32 18/96/32
f 18/96/32 16/97/32 22/63/32
f 16/97/32 14/98/32 22/63/32
f 14/98/32 12/99/32 10/100/32
f 10/100/32 8/101/32 6/64/32
f 6/64/32 2/74/32 62/76/32
f 46/84/32 42/86/32 54/78/32
f 42/86/32 38/62/32 54/78/32
f 38/62/32 34/89/32 30/91/32
f 14/98/32 10/100/32 22/63/32
f 10/100/32 6/64/32 22/63/32
f 6/64/32 62/76/32 54/78/32
f 38/62/32 30/91/32 22/63/32
f 6/64/32 54/78/32 38/62/32
f 61/61/31 62/60/31 64/65/33
f 63/66/33 64/65/33 2/67/1
f 63/102/34 1/103/34 3/104/34
f 3/104/34 5/105/34 7/106/34
f 7/106/34 9/107/34 11/108/34
f 11/108/34 13/109/34 7/106/34
f 13/109/34 15/69/34 7/106/34
f 15/69/34 17/110/34 19/111/34
f 19/111/34 21/112/34 23/113/34
f 23/113/34 25/114/34 27/115/34
f 27/115/34 29/116/34 31/70/34
f 31/70/34 33/117/34 35/118/34
f 35/118/34 37/119/34 39/120/34
f 39/120/34 41/121/34 43/122/34
f 43/122/34 45/123/34 39/120/34
f 45/123/34 47/71/34 39/120/34
f 47/71/34 49/124/34 51/125/34
f 51/125/34 53/126/34 55/127/34
f 55/127/34 57/128/34 59/129/34
f 59/129/34 61/130/34 63/102/34
f 63/102/34 3/104/34 7/106/34
f 15/69/34 19/111/34 31/70/34
f 19/111/34 23/113/34 31/70/34
f 23/113/34 27/115/34 31/70/34
f 31/70/34 35/118/34 39/120/34
f 47/71/34 51/125/34 63/102/34
f 51/125/34 55/127/34 63/102/34
f 55/127/34 59/129/34 63/102/34
f 63/102/34 7/106/34 15/69/34
f 31/70/34 39/120/34 47/71/34
f 63/102/34 15/69/34 47/71/34
